<svg width="33" height="32" viewBox="0 0 33 32" fill="none" xmlns="http://www.w3.org/2000/svg">
<path d="M24.9403 6.75001H32.9995V9.87501H29.7759V30.1875C29.7759 30.6019 29.606 30.9993 29.3038 31.2924C29.0015 31.5854 28.5915 31.75 28.164 31.75H5.59822C5.17073 31.75 4.76076 31.5854 4.45848 31.2924C4.1562 30.9993 3.98638 30.6019 3.98638 30.1875V9.87501H0.762695V6.75001H8.82191V2.06251C8.82191 1.64811 8.99172 1.25068 9.294 0.957653C9.59628 0.664628 10.0063 0.500008 10.4337 0.500008H23.3285C23.756 0.500008 24.166 0.664628 24.4682 0.957653C24.7705 1.25068 24.9403 1.64811 24.9403 2.06251V6.75001ZM26.5522 9.87501H7.21006V28.625H26.5522V9.87501ZM12.0456 14.5625H15.2693V23.9375H12.0456V14.5625ZM18.493 14.5625H21.7166V23.9375H18.493V14.5625ZM12.0456 3.62501V6.75001H21.7166V3.62501H12.0456Z" fill="#C0E4EF"/>
</svg>
