<svg width="49" height="14" viewBox="0 0 49 14" fill="none" xmlns="http://www.w3.org/2000/svg">
<path fill-rule="evenodd" clip-rule="evenodd" d="M4.70552 0.052359C4.72671 0.0522273 4.74992 0.0518168 4.77496 0.0513738C5.26765 0.0426602 6.4717 0.0213657 6.99635 1.86139C7.36772 3.16387 7.9593 5.29738 8.77107 8.26194H9.10168C9.97224 5.1365 10.5703 3.00298 10.8958 1.86139C11.4195 0.0245845 12.6818 0.0425914 13.2939 0.0513233C13.3329 0.0518791 13.3692 0.0523973 13.4025 0.0523973L17.7004 0.0524028V13.9454H13.3199V5.75804H13.0262L10.5843 13.9454H7.2885L4.84659 5.75198H4.55285V13.9454H0.172363V0.0524028L4.70552 0.052359ZM23.9907 0.0521486V8.24564H24.3402L27.3105 1.50819C27.8871 0.167419 29.1161 0.0521486 29.1161 0.0521486H33.3551V13.9452H28.8831V5.75172H28.5336L25.6215 12.4892C25.0449 13.8239 23.7578 13.9452 23.7578 13.9452H19.5188V0.0521486H23.9907ZM44.0605 9.80695C46.2293 9.80695 48.1883 8.4914 48.8121 6.65448H35.1181V13.9455H39.3707V9.80695H44.0605Z" fill="#40A548"/>
</svg>
