<svg width="1816" height="442" viewBox="0 0 1816 442" fill="none" xmlns="http://www.w3.org/2000/svg">
<path fill-rule="evenodd" clip-rule="evenodd" d="M1290.56 20.1071C1386.24 -12.7957 1479.86 -2.01388 1533.03 33.4502C1548.04 43.4665 1559.82 55.4519 1567.51 68.9753C1584.87 82.2785 1595.35 98.8249 1596.41 117.526C1597.7 140.17 1585.21 165.914 1554.61 192.824C1532.61 212.161 1495.58 230.689 1447.32 247.434C1419.67 259.508 1387.54 270.744 1351.76 280.961C1311.18 292.552 1265.86 302.836 1217.02 311.547C1222.27 317.345 1228.19 322.945 1234.8 328.305C1270.43 357.199 1326.07 379.164 1406.26 387.829C1662.98 415.565 1784.75 337.174 1813.53 294.654L1814.24 294.94C1785.26 337.771 1663.07 416.212 1406.14 388.452C1325.82 379.773 1270 357.763 1234.22 328.746C1227.5 323.297 1221.49 317.6 1216.15 311.7C1196.07 315.27 1175.4 318.576 1154.21 321.596C1162.46 334.808 1172.87 347.386 1185.63 359.057C1224.49 394.612 1285.07 421.774 1372.24 432.777C1651.33 467.998 1783.31 372.66 1814.41 320.722L1815.13 320.979C1783.85 373.232 1651.46 468.655 1372.1 433.398C1284.77 422.377 1224.01 395.155 1185.01 359.471C1172.16 347.71 1161.67 335.031 1153.37 321.714C1120.14 326.438 1085.65 330.462 1050.21 333.718C822.837 354.607 556.64 343.815 335.221 282.558C246.702 258.068 179.92 247.658 130.262 246.964C80.6036 246.269 48.1149 255.289 28.119 269.619C8.12941 283.945 0.557462 303.628 0.865632 324.376C1.17393 345.128 9.36629 366.92 20.8615 385.406L20.1371 385.69C8.60534 367.145 0.372098 345.263 0.0623438 324.396C-0.248342 303.526 7.36998 283.644 27.5828 269.159C47.79 254.677 80.5166 245.638 130.293 246.335C180.07 247.031 246.941 257.463 335.502 281.964C556.778 343.182 822.845 353.974 1050.14 333.092C1085.47 329.847 1119.86 325.835 1153.02 321.129C1150.74 317.448 1148.64 313.719 1146.69 309.948C1132.3 311.612 1117.71 313.151 1102.95 314.558C890.405 334.834 643.091 327.752 442.953 272.046C293.868 230.55 193.536 208.954 135.753 205.264C121.311 204.342 109.547 204.539 100.354 205.818C91.157 207.096 84.5761 209.452 80.4489 212.814C76.3354 216.166 74.6118 220.559 75.2268 226.005C75.8431 231.463 78.8077 237.965 84.0607 245.488L83.3533 245.799C78.0757 238.239 75.0556 231.651 74.4257 226.073C73.7946 220.484 75.5635 215.896 79.8743 212.383C84.1711 208.882 90.9457 206.489 100.229 205.198C109.516 203.907 121.355 203.712 135.834 204.637C193.735 208.335 294.158 229.959 443.235 271.453C643.22 327.116 890.4 334.201 1102.87 313.934C1117.55 312.534 1132.06 311.003 1146.39 309.349C1134.33 285.7 1128.66 260.397 1128.48 234.878C1127.85 145.327 1194.81 53.0328 1290.56 20.1071ZM1147.21 309.253C1135.14 285.64 1129.46 260.364 1129.29 234.863C1128.65 145.513 1195.48 53.485 1290.87 20.6824C1386.33 -12.1435 1479.61 -1.34771 1532.5 33.9324C1546.89 43.5321 1558.28 54.9445 1565.93 67.7862C1562.71 65.4135 1559.27 63.1483 1555.62 60.9967C1506.82 32.217 1420.7 23.7614 1332.54 50.9968C1244.31 78.2535 1182.34 153.919 1182.61 227.119C1182.7 252.91 1190.52 278.398 1207.64 301.356C1187.95 304.229 1167.78 306.869 1147.21 309.253ZM1568.39 70.5556C1584.76 83.5674 1594.58 99.5692 1595.61 117.566C1596.89 139.998 1584.52 165.587 1554.01 192.41C1533.3 210.616 1499.15 228.137 1454.73 244.132C1488.33 228.82 1514.8 212.218 1532.52 194.681C1565.65 161.901 1579.09 130.471 1577.58 102.784C1576.95 91.3391 1573.78 80.5396 1568.39 70.5556ZM1446.97 246.872C1484.02 230.689 1512.98 213.015 1531.9 194.296C1564.93 161.607 1578.28 130.323 1576.78 102.823C1576.13 90.8951 1572.68 79.6718 1566.83 69.3468C1563.22 66.5887 1559.31 63.971 1555.13 61.5021C1506.6 32.8818 1420.79 24.4065 1332.83 51.5813C1244.93 78.7352 1183.15 154.152 1183.41 227.105C1183.51 252.868 1191.34 278.322 1208.49 301.232C1273.66 291.694 1333.55 279.592 1385.26 265.682C1407.42 259.723 1428.06 253.433 1446.97 246.872ZM1439.14 250.218C1413.36 261.01 1383.95 271.107 1351.5 280.371C1310.85 291.979 1265.46 302.275 1216.51 310.993C1213.81 307.983 1211.28 304.919 1208.92 301.807C1274.01 292.271 1333.84 280.177 1385.51 266.277C1404.54 261.158 1422.46 255.792 1439.14 250.218ZM1215.66 311.146C1195.62 314.704 1174.98 318 1153.84 321.011C1151.57 317.338 1149.46 313.616 1147.52 309.852C1168.13 307.46 1188.34 304.813 1208.08 301.931C1210.43 305.052 1212.96 308.125 1215.66 311.146Z" fill="url(#paint0_linear_45_27)"/>
<defs>
<linearGradient id="paint0_linear_45_27" x1="612.644" y1="760.321" x2="810.86" y2="1.34526" gradientUnits="userSpaceOnUse">
<stop/>
<stop offset="1" stop-opacity="0"/>
</linearGradient>
</defs>
</svg>
