<svg width="104" height="88" viewBox="0 0 104 88" fill="none" xmlns="http://www.w3.org/2000/svg">
<g filter="url(#filter0_d_43_98)">
<mask id="mask0_43_98" style="mask-type:luminance" maskUnits="userSpaceOnUse" x="4" y="0" width="96" height="80">
<path d="M99.4777 0H4.80817V80H99.4777V0Z" fill="white"/>
</mask>
<g mask="url(#mask0_43_98)">
<path d="M94.665 51.7539C92.31 49.3851 89.2959 47.7931 86.0226 47.1888C82.749 46.5845 79.3701 46.9963 76.3344 48.3701C76.4276 46.0944 76.0516 43.8237 75.23 41.7015C74.4088 39.5792 73.1593 37.6516 71.5614 36.04H71.5536L79.2978 28.2403C80.8292 26.7062 82.0454 24.8828 82.8763 22.8746C83.7071 20.8664 84.1365 18.7129 84.1396 16.5373C84.1427 14.3617 83.7199 12.2069 82.8952 10.1962C82.0701 8.18548 80.8597 6.35846 79.3326 4.81976C77.8058 3.28102 75.9924 2.06083 73.9964 1.22907C72.0004 0.397321 69.8613 -0.0296587 67.7013 -0.0274112C65.5413 -0.0251638 63.403 0.406271 61.4089 1.24218C59.4148 2.07808 57.6038 3.30203 56.0801 4.84395C54.2756 6.65457 52.9217 8.86926 52.1291 11.3073C51.3295 8.95155 50.012 6.80808 48.2752 5.03673C46.5384 3.26537 44.4267 1.91183 42.0981 1.07708C39.7695 0.242324 37.2837 -0.052113 34.8263 0.215729C32.3689 0.48357 30.0033 1.30678 27.9058 2.62396C25.8083 3.94114 24.0332 5.71829 22.7127 7.82287C21.3923 9.92745 20.5606 12.3052 20.2798 14.7786C19.9989 17.2521 20.2761 19.7576 21.0907 22.1081C21.9053 24.4586 23.2363 26.5935 24.9844 28.3537L32.7293 36.16L32.7231 36.1565C31.1525 37.738 29.9181 39.6252 29.0952 41.7027C28.2723 43.7805 27.8781 46.0052 27.9366 48.2412C25.2044 47.0096 22.19 46.5537 19.2192 46.9227C16.2483 47.2917 13.4342 48.4714 11.0809 50.3346C8.7276 52.1981 6.92476 54.6737 5.86722 57.4941C4.8097 60.3146 4.53773 63.3726 5.08073 66.3376C5.62373 69.3026 6.96103 72.0614 8.94808 74.3165C10.9351 76.5712 13.4963 78.2361 16.3547 79.131C19.2131 80.0259 22.26 80.1171 25.166 79.394C28.072 78.6713 30.7265 77.1619 32.8426 75.0295L40.4746 67.3541C43.5548 70.4562 47.7325 72.1986 52.0881 72.1986C56.4437 72.1986 60.6213 70.4562 63.7016 67.3541L71.4349 75.1464C74.5163 78.2403 78.6909 79.9761 83.0418 79.9726C87.3928 79.9695 91.5646 78.2275 94.6414 75.1289C97.7185 72.0307 99.4492 67.8291 99.4534 63.4467C99.4577 59.0643 97.7355 54.8596 94.665 51.7547V51.7539ZM59.9459 8.74049C62 6.67397 64.7847 5.51323 67.6878 5.51323C70.5912 5.51323 73.376 6.67397 75.43 8.74049V8.74945C76.4465 9.77332 77.253 10.9888 77.8031 12.3266C78.3532 13.6644 78.6363 15.0982 78.6363 16.5462C78.6363 17.9942 78.3532 19.4281 77.8031 20.7658C77.253 22.1036 76.4465 23.3191 75.43 24.343L67.6889 32.1404L59.9459 24.343C57.8923 22.2738 56.7384 19.4676 56.7384 16.5417C56.7384 13.6158 57.8923 10.8097 59.9459 8.74049ZM28.9783 71.1357C27.4469 72.679 25.4955 73.7298 23.3709 74.1556C21.2464 74.5819 19.0442 74.3633 17.0428 73.5287C15.0415 72.6938 13.3308 71.2803 12.1272 69.4658C10.9237 67.6518 10.2813 65.519 10.2813 63.3372C10.2813 61.1553 10.9237 59.0226 12.1272 57.2085C13.3308 55.3945 15.0415 53.9806 17.0428 53.1456C19.0442 52.3111 21.2464 52.0929 23.3709 52.5187C25.4955 52.9446 27.4469 53.9958 28.9783 55.5387L36.5963 63.4478L28.9783 71.1357ZM36.7089 55.5344L35.4169 54.2292C33.9225 52.1061 33.2213 49.5195 33.4371 46.9262C33.6529 44.3329 34.7719 41.9002 36.5963 40.0573C38.6287 42.1055 39.7796 44.8768 39.8007 47.7725C39.8218 50.6685 38.7112 53.4562 36.7089 55.5344ZM36.601 32.2541L28.8565 24.4552C27.3255 22.9132 26.283 20.9485 25.8606 18.8097C25.4383 16.6708 25.6551 14.4538 26.4836 12.4391C27.3122 10.4244 28.7153 8.70235 30.5155 7.4908C32.3157 6.27929 34.4322 5.63261 36.5973 5.63261C38.7624 5.63261 40.8789 6.27929 42.6791 7.4908C44.4793 8.70235 45.8823 10.4244 46.7109 12.4391C47.5395 14.4538 47.7565 16.6708 47.3341 18.8097C46.9117 20.9485 45.8692 22.9132 44.3382 24.4552L36.601 32.2541ZM44.4677 63.3368C46.5283 61.3205 49.2937 60.202 52.1666 60.2222C55.0395 60.2425 57.789 61.4 59.8214 63.4451C57.7608 65.4614 54.9954 66.5803 52.1225 66.5601C49.2496 66.5398 46.5001 65.3819 44.4677 63.3368ZM63.8176 36.04C62.2924 37.5761 61.0824 39.3996 60.2566 41.4069C59.4311 43.4138 59.0064 45.5653 59.0064 47.7378C59.0064 49.9103 59.4311 52.0617 60.2566 54.0686C61.0824 56.0759 62.2924 57.8997 63.8176 59.4356C60.7362 56.3339 56.5582 54.5911 52.2018 54.5911C47.8455 54.5911 43.6674 56.3339 40.586 59.4356L40.5825 59.4317C43.6121 56.3198 45.3006 52.1295 45.2801 47.7713C45.2599 43.4131 43.5332 39.2387 40.4746 36.1557L48.2083 28.3537C50.0113 26.5443 51.3663 24.333 52.1639 21.8986C52.9685 24.2878 54.3088 26.4582 56.0812 28.2411L63.8176 36.0392V36.04ZM67.6858 39.9361C69.7375 42.0054 70.8899 44.8106 70.8899 47.7351C70.8899 50.6595 69.7375 53.4647 67.6858 55.534V55.5383C65.6349 53.4675 64.4833 50.6622 64.4837 47.7374C64.4837 44.8126 65.6357 42.0069 67.6866 39.9365L67.6858 39.9361ZM90.7964 71.2503C89.7798 72.2746 88.5733 73.0873 87.245 73.6417C85.9166 74.1957 84.4928 74.4813 83.0553 74.4813C81.6175 74.4813 80.1936 74.1957 78.8653 73.6417C77.537 73.0873 76.3305 72.2746 75.3139 71.2503L67.5725 63.4513L75.3135 55.6501V55.6466C77.3679 53.5785 80.1538 52.4174 83.058 52.4182C85.9627 52.419 88.7478 53.582 90.801 55.6513C92.8539 57.7201 94.007 60.5261 94.0062 63.4517C94.0054 66.377 92.8508 69.1822 90.7964 71.2503Z" fill="black"/>
</g>
</g>
<defs>
<filter id="filter0_d_43_98" x="0.808289" y="0" width="102.645" height="87.9726" filterUnits="userSpaceOnUse" color-interpolation-filters="sRGB">
<feFlood flood-opacity="0" result="BackgroundImageFix"/>
<feColorMatrix in="SourceAlpha" type="matrix" values="0 0 0 0 0 0 0 0 0 0 0 0 0 0 0 0 0 0 127 0" result="hardAlpha"/>
<feOffset dy="4"/>
<feGaussianBlur stdDeviation="2"/>
<feComposite in2="hardAlpha" operator="out"/>
<feColorMatrix type="matrix" values="0 0 0 0 0 0 0 0 0 0 0 0 0 0 0 0 0 0 0.25 0"/>
<feBlend mode="normal" in2="BackgroundImageFix" result="effect1_dropShadow_43_98"/>
<feBlend mode="normal" in="SourceGraphic" in2="effect1_dropShadow_43_98" result="shape"/>
</filter>
</defs>
</svg>
